<svg xmlns="http://www.w3.org/2000/svg" version="1.1" xmlns:xlink="http://www.w3.org/1999/xlink" xmlns:svgjs="http://svgjs.com/svgjs" width="1440" height="800" preserveAspectRatio="none" viewBox="0 0 1440 800"><g mask="url(&quot;#SvgjsMask1035&quot;)" fill="none"><rect width="1440" height="800" x="0" y="0" fill="rgba(5, 68, 94, 1)"></rect><path d="M0,686.645C126.432,695.693,247.12,608.925,329.327,512.443C402.808,426.202,379.063,297.527,421.168,192.341C460.404,94.322,576.11,23.659,567.09,-81.535C558.075,-186.68,436.234,-239.276,376.689,-326.403C306.768,-428.711,295.445,-577.17,187.169,-637.438C75.589,-699.545,-69.669,-688.426,-188.158,-640.807C-302.409,-594.891,-387.085,-493.655,-443.252,-384.08C-492.475,-288.051,-472.763,-176.763,-481.165,-69.181C-488.939,30.357,-522.632,129.505,-490.751,224.119C-457.191,323.714,-376.847,395.294,-300.365,467.377C-208.29,554.156,-126.201,677.613,0,686.645" fill="#032c3d"></path><path d="M1440 1338.758C1546.699 1349.283 1665.74 1348.69 1750.0720000000001 1282.481 1833.062 1217.326 1849.186 1100.722 1873.8609999999999 998.137 1894.684 911.567 1886.022 825.456 1881.3899999999999 736.538 1876.258 638.0260000000001 1893.268 535.021 1845.2440000000001 448.854 1792.4279999999999 354.088 1710.83 261.31500000000005 1604.507 239.74099999999999 1499.184 218.37 1403.165 296.135 1304.688 339.169 1218.836 376.686 1127.308 405.085 1065.338 475.354 1003.076 545.954 977.631 638.559 959.24 730.877 939.973 827.592 918.484 929.807 956.694 1020.719 995.3299999999999 1112.644 1083.6019999999999 1170.141 1166.899 1224.954 1250.9859999999999 1280.288 1339.826 1328.876 1440 1338.758" fill="#075c7f"></path></g><defs><mask id="SvgjsMask1035"><rect width="1440" height="800" fill="#ffffff"></rect></mask></defs></svg>