<svg xmlns="http://www.w3.org/2000/svg" version="1.1" xmlns:xlink="http://www.w3.org/1999/xlink" xmlns:svgjs="http://svgjs.com/svgjs" width="1440" height="800" preserveAspectRatio="none" viewBox="0 0 1440 800"><g mask="url(&quot;#SvgjsMask1114&quot;)" fill="none"><rect width="1440" height="800" x="0" y="0" fill="rgba(5, 68, 94, 1)"></rect><path d="M0,461.286C85.196,464.85,146.015,383.508,223.27,347.415C315.97,304.106,458.508,321.858,499.291,228.019C540.307,133.643,426.059,41.94,399.202,-57.397C376.666,-140.753,411.928,-242.691,354.577,-307.243C297.257,-371.761,191.577,-347.864,111.829,-380.855C18.616,-419.417,-50.905,-520.285,-151.715,-516.694C-256.355,-512.967,-355.586,-446.239,-417.761,-361.992C-478.298,-279.964,-479.742,-171.212,-481.903,-69.287C-483.854,22.75,-481.274,120.006,-429.596,196.19C-380.817,268.1,-285.527,283.593,-211.58,329.224C-139.366,373.786,-84.782,457.739,0,461.286" fill="#032c3d"></path><path d="M1440 1145.124C1505.913 1133.175 1570.066 1125.058 1630.952 1097.127 1700.259 1065.333 1768.646 1031.126 1817.012 972.1759999999999 1875.116 901.358 1954.892 818.054 1932.877 729.135 1910.417 638.418 1776.505 632.077 1715.319 561.435 1654.112 490.768 1666.775 357.688 1580.326 322.095 1495.607 287.21400000000006 1402.291 354.735 1322.4569999999999 399.686 1255.369 437.46 1204.346 494.608 1160.967 558.216 1121.579 615.971 1102.4569999999999 681.347 1084.327 748.862 1063.766 825.431 1027.435 902.4590000000001 1047.963 979.037 1069.775 1060.407 1121.12 1142.626 1198.689 1175.488 1274.881 1207.767 1358.58 1159.884 1440 1145.124" fill="#075c7f"></path></g><defs><mask id="SvgjsMask1114"><rect width="1440" height="800" fill="#ffffff"></rect></mask></defs></svg>