<svg viewBox="0 0 320 99.8888905843099" height="99.8888905843099" width="320" style="width: 320px; height: 99.8889px; position: absolute; top: 50%; left: 50%; transform: translate(-50%, -50%) scale(0.945313); z-index: 0; cursor: pointer;"><defs id="SvgjsDefs1013"></defs><g id="SvgjsG1014" featurekey="5TMTKC-0" transform="matrix(1.1111111111111112,0,0,1.1111111111111112,-5.555554495917426,-5.555555555555555)" fill="#f25d9c"><g xmlns="http://www.w3.org/2000/svg"><path d="M78.4,66.5c-5.5,4.8-9.9,15.2-9.9,15.2s-6.9-11.4-12.9-15.3c-9.5-6.1-13.6-6.2-13.6-6.2V65c0,0,7.8,1.2,11.7,4.6   c8.2,7.1,14.8,18.5,14.8,18.5S74.4,75,80.1,70.5C88.1,64.3,95,65,95,65v-4.8C95,60.1,85.1,60.7,78.4,66.5z"></path><path d="M42,80c-6.4-3.6-17.8-4.3-17.8-4.3s8.7-10.1,10.5-17C37.5,47.9,36.2,44,36.2,44l-4.6,1.6c0,0,1.3,7.7-0.6,12.4   c-4.1,9.9-13,19.8-13,19.8s14.6,1.3,20.7,5.1c8.6,5.4,10.2,12,10.2,12l4.6-1.6C53.5,93.4,49.7,84.4,42,80z"></path><path d="M35.3,36.8c11.3-0.9,14.6-3.4,14.6-3.4l-3-3.8c0,0-6.9,3.7-12.1,3.4c-10.9-0.6-23.3-5.6-23.3-5.6s3.5,14,1.8,20.9   C10.9,58.2,5,61.8,5,61.8l3,3.8c0,0,7.5-6.5,9.1-15.1c1.3-7.1-1.7-18-1.7-18S28,37.4,35.3,36.8z"></path><path d="M37.4,17.8c7.3-1.1,16.7-7.4,16.7-7.4s-0.6,13.2,2.4,19.8c4.6,10.2,8,12.5,8,12.5l2.7-4c0,0-5.9-5.2-7.3-10.2   C56.9,18.2,57.7,5,57.7,5s-12.3,7.8-19.5,8.5c-10.2,1-15.6-3.3-15.6-3.3l-2.7,4.1C19.9,14.2,28.6,19.1,37.4,17.8z"></path><path d="M65,60.5c0,0,3.1-7.2,7.4-10.1c9-6.1,21.9-9.7,21.9-9.7s-11.5-8.9-14.5-15.4c-4.2-9.1-1.9-15.6-1.9-15.6l-4.8-1.2   c0,0-1.9,9.6,2.2,17.4c3.4,6.4,12.5,13.2,12.5,13.2S75,42.9,69.6,47.8c-8.3,7.6-9.4,11.5-9.4,11.5L65,60.5z"></path></g></g><g id="SvgjsG1015" featurekey="7UBp9i-0" transform="matrix(1.3524480256489655,0,0,1.3524480256489655,118.4311614639606,30.723829467233173)" fill="#590d82"><path d="M7.04 9.38 c1.5067 0 2.5134 0.57332 3.02 1.72 c0.78666 -1.1467 1.8333 -1.72 3.14 -1.72 c1.2933 0 2.2434 0.32666 2.85 0.98 s0.91 1.5533 0.91 2.7 l0 6.94 l-2.84 0 l0 -5.98 c0 -0.90666 -0.13666 -1.5333 -0.41 -1.88 s-0.71668 -0.52 -1.33 -0.52 c-1.2667 0 -1.9 0.86666 -1.9 2.6 l0 5.78 l-2.84 0 l0 -6.1 c0 -0.88 -0.14 -1.48 -0.42 -1.8 s-0.71334 -0.48 -1.3 -0.48 c-0.54666 0 -1.0033 0.21666 -1.37 0.65 s-0.55 1.0033 -0.55 1.71 l0 6.02 l-2.84 0 l0 -10.34 l2.68 0 l0 1.4 l0.04 0 c0.78666 -1.12 1.84 -1.68 3.16 -1.68 z M21.04 9.66 l2.34 7.08 l0.04 0 l2.26 -7.08 l2.94 0 l-4.32 11.64 c-0.30666 0.81334 -0.73 1.4067 -1.27 1.78 s-1.29 0.56 -2.25 0.56 c-0.41334 0 -1.0067 -0.03334 -1.78 -0.1 l0 -2.34 c0.50666 0.06666 1.0067 0.1 1.5 0.1 c0.4 0 0.71 -0.12334 0.93 -0.37 s0.33 -0.55666 0.33 -0.93 c0 -0.21334 -0.04 -0.42668 -0.12 -0.64002 l-3.64 -9.7 l3.04 0 z M36.28 5.380000000000001 c1.6667 0 3.0666 0.47 4.2 1.41 s1.7867 2.1834 1.96 3.73 l-3.04 0 c-0.10666 -0.70666 -0.46 -1.3 -1.06 -1.78 s-1.2867 -0.72 -2.06 -0.72 c-1.2267 0 -2.18 0.44 -2.86 1.32 s-1.02 2.0734 -1.02 3.58 c0 1.4667 0.34334 2.63 1.03 3.49 s1.6367 1.29 2.85 1.29 c0.90666 0 1.64 -0.27666 2.2 -0.83 s0.90666 -1.3433 1.04 -2.37 l3.04 0 c-0.16 1.8133 -0.81 3.24 -1.95 4.28 s-2.5834 1.56 -4.33 1.56 c-2.0934 0 -3.7866 -0.69 -5.08 -2.07 s-1.94 -3.1634 -1.94 -5.35 c0 -2.2134 0.64 -4.0234 1.92 -5.43 s2.98 -2.11 5.1 -2.11 z M50.44 9.38 c0.24 0 0.44668 0.03334 0.62002 0.1 l0 2.64 c-0.30666 -0.06666 -0.64666 -0.1 -1.02 -0.1 c-1.8667 0 -2.8 1.1067 -2.8 3.32 l0 4.66 l-2.84 0 l0 -10.34 l2.7 0 l0 1.92 l0.04 0 c0.28 -0.66666 0.72334 -1.2 1.33 -1.6 s1.2633 -0.6 1.97 -0.6 z M56.6 9.38 c0.97334 0 1.84 0.22664 2.6 0.67998 s1.3567 1.11 1.79 1.97 s0.65 1.85 0.65 2.97 c0 0.10666 -0.0066602 0.28 -0.02 0.52 l-7.46 0 c0.02666 0.82666 0.24332 1.47 0.64998 1.93 s1.03 0.69 1.87 0.69 c0.52 0 0.99666 -0.13 1.43 -0.39 s0.71 -0.57666 0.83 -0.95 l2.5 0 c-0.73334 2.32 -2.3466 3.48 -4.84 3.48 c-0.94666 -0.01334 -1.8233 -0.22 -2.63 -0.62 s-1.45 -1.0233 -1.93 -1.87 s-0.72 -1.83 -0.72 -2.95 c0 -1.0533 0.24334 -2.0134 0.73 -2.88 s1.1333 -1.5133 1.94 -1.94 s1.6767 -0.64 2.61 -0.64 z M58.78 13.719999999999999 c-0.13334 -0.77334 -0.38 -1.3333 -0.74 -1.68 s-0.87334 -0.52 -1.54 -0.52 c-0.69334 0 -1.24 0.19666 -1.64 0.59 s-0.63334 0.93 -0.7 1.61 l4.62 0 z M68.06 9.38 c3.0134 0.01334 4.52 0.9933 4.52 2.94 l0 5.48 c0 1.0133 0.12 1.7467 0.36 2.2 l-2.88 0 c-0.10666 -0.32 -0.17332 -0.65334 -0.19998 -1 c-0.84 0.85334 -2 1.28 -3.48 1.28 c-1.08 0 -1.9367 -0.27334 -2.57 -0.82 s-0.95 -1.3067 -0.95 -2.28 c0 -0.94666 0.3 -1.68 0.9 -2.2 c0.61334 -0.54666 1.7267 -0.89332 3.34 -1.04 c1.1467 -0.12 1.8733 -0.27 2.18 -0.45 s0.46 -0.45666 0.46 -0.83 c0 -0.46666 -0.14 -0.81332 -0.42 -1.04 s-0.74666 -0.34 -1.4 -0.34 c-0.6 0 -1.0533 0.12334 -1.36 0.37 s-0.48666 0.64332 -0.54 1.19 l-2.84 0 c0.06666 -1.1333 0.53332 -1.9933 1.4 -2.58 s2.0266 -0.88 3.48 -0.88 z M65.7 17.06 c0 0.88 0.58 1.32 1.74 1.32 c1.52 -0.01334 2.2866 -0.79334 2.3 -2.34 l0 -1.1 c-0.22666 0.22666 -0.8 0.39332 -1.72 0.49998 c-0.8 0.09334 -1.3867 0.25668 -1.76 0.49002 s-0.56 0.61 -0.56 1.13 z M78.38 6.5600000000000005 l0.000019531 3.1 l2.08 0 l0 1.9 l-2.08 0 l0 5.12 c0 0.48 0.08 0.8 0.24 0.96 s0.48 0.24 0.96 0.24 c0.34666 0 0.64 -0.02666 0.88 -0.08 l0 2.22 c-0.4 0.06666 -0.96 0.1 -1.68 0.1 c-1.0933 0 -1.9067 -0.18666 -2.44 -0.56 s-0.8 -1.02 -0.8 -1.94 l0 -6.06 l-1.72 0 l0 -1.9 l1.72 0 l0 -3.1 l2.84 0 z M84.74000000000001 5.720000000000001 l0 2.34 l-2.84 0 l0 -2.34 l2.84 0 z M84.74000000000001 9.66 l0 10.34 l-2.84 0 l0 -10.34 l2.84 0 z M88.98 9.66 l2.18 7.06 l0.04 0 l2.18 -7.06 l2.82 0 l-3.5 10.34 l-3.16 0 l-3.54 -10.34 l2.98 0 z M102.16000000000001 9.38 c0.97334 0 1.84 0.22664 2.6 0.67998 s1.3567 1.11 1.79 1.97 s0.65 1.85 0.65 2.97 c0 0.10666 -0.0066602 0.28 -0.02 0.52 l-7.46 0 c0.02666 0.82666 0.24332 1.47 0.64998 1.93 s1.03 0.69 1.87 0.69 c0.52 0 0.99666 -0.13 1.43 -0.39 s0.71 -0.57666 0.83 -0.95 l2.5 0 c-0.73334 2.32 -2.3466 3.48 -4.84 3.48 c-0.94666 -0.01334 -1.8233 -0.22 -2.63 -0.62 s-1.45 -1.0233 -1.93 -1.87 s-0.72 -1.83 -0.72 -2.95 c0 -1.0533 0.24334 -2.0134 0.73 -2.88 s1.1333 -1.5133 1.94 -1.94 s1.6767 -0.64 2.61 -0.64 z M104.34 13.719999999999999 c-0.13334 -0.77334 -0.38 -1.3333 -0.74 -1.68 s-0.87334 -0.52 -1.54 -0.52 c-0.69334 0 -1.24 0.19666 -1.64 0.59 s-0.63334 0.93 -0.7 1.61 l4.62 0 z M114.08000000000001 5.380000000000001 c1.7467 0 3.1366 0.40002 4.17 1.2 s1.55 1.9333 1.55 3.4 l-3.04 0 c-0.04 -0.72 -0.28334 -1.26 -0.73 -1.62 s-1.1367 -0.54 -2.07 -0.54 c-0.65334 0 -1.18 0.14334 -1.58 0.43 s-0.6 0.68332 -0.6 1.19 c0 0.41334 0.12334 0.71334 0.37 0.9 s0.59666 0.35332 1.05 0.49998 s1.2467 0.36 2.38 0.64 c1.1867 0.29334 2.1 0.61334 2.74 0.96 s1.1267 0.79 1.46 1.33 s0.5 1.2033 0.5 1.99 c0 0.90666 -0.24 1.7133 -0.72 2.42 s-1.18 1.2433 -2.1 1.61 s-1.96 0.55 -3.12 0.55 c-1.7733 0 -3.23 -0.44334 -4.37 -1.33 s-1.71 -2.1034 -1.71 -3.65 l0 -0.1 l3.04 0 c0 0.84 0.28666 1.49 0.86 1.95 s1.3333 0.69 2.28 0.69 c0.84 0 1.5167 -0.15 2.03 -0.45 s0.77 -0.74334 0.77 -1.33 c0 -0.38666 -0.14 -0.71332 -0.42 -0.97998 s-0.65334 -0.48332 -1.12 -0.64998 s-1.2533 -0.37666 -2.36 -0.63 c-1.28 -0.32 -2.2134 -0.66 -2.8 -1.02 s-1.0333 -0.79666 -1.34 -1.31 s-0.46 -1.13 -0.46 -1.85 c0 -0.89334 0.25666 -1.6733 0.77 -2.34 s1.1833 -1.16 2.01 -1.48 s1.68 -0.48 2.56 -0.48 z M124.76000000000002 5.720000000000001 l0 2.34 l-2.84 0 l0 -2.34 l2.84 0 z M124.76000000000002 9.66 l0 10.34 l-2.84 0 l0 -10.34 l2.84 0 z M137.08 5.720000000000001 l0 14.28 l-2.7 0 l0 -1.32 l-0.04 0 c-0.61334 1.0667 -1.66 1.6 -3.14 1.6 c-1.4267 0 -2.5566 -0.52 -3.39 -1.56 s-1.25 -2.3666 -1.25 -3.98 c0 -1.5733 0.42334 -2.86 1.27 -3.86 s1.95 -1.5 3.31 -1.5 c0.62666 0 1.2167 0.13 1.77 0.39 s0.98334 0.64334 1.29 1.15 l0.04 0 l0 -5.2 l2.84 0 z M129.4 14.82 c0 0.94666 0.22332 1.7367 0.66998 2.37 s1.0567 0.95 1.83 0.95 c0.81334 0 1.4233 -0.29666 1.83 -0.89 s0.61 -1.41 0.61 -2.45 s-0.21334 -1.8467 -0.64 -2.42 s-1.0333 -0.86 -1.82 -0.86 c-0.81334 0 -1.43 0.3 -1.85 0.9 s-0.63 1.4 -0.63 2.4 z M144.00000000000003 9.38 c0.97334 0 1.84 0.22664 2.6 0.67998 s1.3567 1.11 1.79 1.97 s0.65 1.85 0.65 2.97 c0 0.10666 -0.0066602 0.28 -0.02 0.52 l-7.46 0 c0.02666 0.82666 0.24332 1.47 0.64998 1.93 s1.03 0.69 1.87 0.69 c0.52 0 0.99666 -0.13 1.43 -0.39 s0.71 -0.57666 0.83 -0.95 l2.5 0 c-0.73334 2.32 -2.3466 3.48 -4.84 3.48 c-0.94666 -0.01334 -1.8233 -0.22 -2.63 -0.62 s-1.45 -1.0233 -1.93 -1.87 s-0.72 -1.83 -0.72 -2.95 c0 -1.0533 0.24334 -2.0134 0.73 -2.88 s1.1333 -1.5133 1.94 -1.94 s1.6767 -0.64 2.61 -0.64 z M146.18 13.719999999999999 c-0.13334 -0.77334 -0.38 -1.3333 -0.74 -1.68 s-0.87334 -0.52 -1.54 -0.52 c-0.69334 0 -1.24 0.19666 -1.64 0.59 s-0.63334 0.93 -0.7 1.61 l4.62 0 z"></path></g></svg>