<svg xmlns="http://www.w3.org/2000/svg" version="1.1" xmlns:xlink="http://www.w3.org/1999/xlink" xmlns:svgjs="http://svgjs.com/svgjs" width="1440" height="800" preserveAspectRatio="none" viewBox="0 0 1440 800"><g mask="url(&quot;#SvgjsMask1005&quot;)" fill="none"><rect width="1440" height="800" x="0" y="0" fill="rgba(5, 68, 94, 1)"></rect><path d="M0,511.694C108.519,534.058,238.138,574.67,325.626,506.683C414.159,437.883,370.98,292.636,414.733,189.402C456.692,90.401,586.672,24.202,575.434,-82.735C564.252,-189.139,434.229,-234.751,361.877,-313.568C292.159,-389.516,254.756,-502.41,157.86,-537.622C59.79,-573.261,-49.219,-536.499,-146.297,-498.24C-237.313,-462.37,-304.24,-392.037,-377.125,-326.781C-461.055,-251.636,-590.612,-198.724,-605.542,-87.064C-620.488,24.716,-515.813,114.43,-448.189,204.681C-393.008,278.326,-325.38,336.161,-249.46,388.167C-171.326,441.69,-92.759,492.578,0,511.694" fill="#032c3d"></path><path d="M1440 1325.5430000000001C1536.237 1316.165 1601.805 1229.063 1675.549 1166.522 1739.7939999999999 1112.038 1788.351 1048.232 1842.789 983.948 1919.771 893.0409999999999 2075.986 828.878 2061.617 710.625 2047.366 593.342 1872.7559999999999 579.956 1784.199 501.75 1711.308 437.379 1679.467 328.361 1588.837 293.106 1496.026 257.00199999999995 1391.793 282.399 1296.749 312.131 1202.952 341.472 1103.84 379.773 1049.662 461.77 997.2819999999999 541.046 1024.219 644.316 1014.793 738.865 1005.858 828.486 967.3430000000001 917.419 995.712 1002.899 1025.376 1092.28 1096.777 1160.156 1172.978 1215.4940000000001 1252.4850000000001 1273.232 1342.203 1335.0729999999999 1440 1325.5430000000001" fill="#075c7f"></path></g><defs><mask id="SvgjsMask1005"><rect width="1440" height="800" fill="#ffffff"></rect></mask></defs></svg>