<svg xmlns="http://www.w3.org/2000/svg" version="1.1" xmlns:xlink="http://www.w3.org/1999/xlink" xmlns:svgjs="http://svgjs.com/svgjs" width="1440" height="800" preserveAspectRatio="none" viewBox="0 0 1440 800"><g mask="url(&quot;#SvgjsMask1120&quot;)" fill="none"><rect width="1440" height="800" x="0" y="0" fill="rgba(5, 68, 94, 1)"></rect><path d="M0,696.282C128.098,697.412,227.646,587.244,321.07,499.595C401.662,423.984,442.808,323.019,499.17,227.963C563.272,119.852,674.064,28.659,674.825,-97.025C675.608,-226.296,597.538,-347.643,503.19,-436.017C413.365,-520.155,290.842,-565.906,167.909,-571.845C58.298,-577.14,-37.692,-513.416,-137.108,-466.949C-221.869,-427.332,-296.058,-377.991,-369.866,-320.491C-461.61,-249.017,-586.509,-200.227,-621.742,-89.393C-657.662,23.603,-606.7,146.902,-551.864,252.028C-498.858,353.646,-406.729,422.094,-317.451,493.964C-217.686,574.275,-128.069,695.152,0,696.282" fill="#032c3d"></path><path d="M1440 1452.187C1564.591 1450.269 1683.713 1409.632 1790.173 1344.88 1898.588 1278.939 2005.238 1197.479 2052.434 1079.689 2098.816 963.931 2066.374 835.808 2043.25 713.266 2021.045 595.594 2000.296 472.944 1921.007 383.205 1842.057 293.85 1723.225 258.548 1609.584 222.44899999999996 1493.617 185.611 1374.247 145.058 1255.549 171.81799999999998 1133.222 199.39599999999996 1022.6669999999999 272.726 946.097 372.031 871.696 468.523 854.996 592.7909999999999 837.929 713.435 820.898 833.826 803.943 957.083 847.259 1070.696 892.082 1188.26 977.028 1287.6770000000001 1082.828 1355.771 1188.669 1423.891 1314.147 1454.125 1440 1452.187" fill="#075c7f"></path></g><defs><mask id="SvgjsMask1120"><rect width="1440" height="800" fill="#ffffff"></rect></mask></defs></svg>