<svg id="visual" viewBox="0 0 1200 600" width="1200" height="600" xmlns="http://www.w3.org/2000/svg" xmlns:xlink="http://www.w3.org/1999/xlink" version="1.1"><rect x="0" y="0" width="1200" height="600" fill="#eee"></rect><path d="M0 378L28.5 380.3C57 382.7 114 387.3 171.2 389C228.3 390.7 285.7 389.3 342.8 391.5C400 393.7 457 399.3 514.2 404.2C571.3 409 628.7 413 685.8 430.2C743 447.3 800 477.7 857.2 474C914.3 470.3 971.7 432.7 1028.8 419.5C1086 406.3 1143 417.7 1171.5 423.3L1200 429L1200 601L1171.5 601C1143 601 1086 601 1028.8 601C971.7 601 914.3 601 857.2 601C800 601 743 601 685.8 601C628.7 601 571.3 601 514.2 601C457 601 400 601 342.8 601C285.7 601 228.3 601 171.2 601C114 601 57 601 28.5 601L0 601Z" fill="#0066FF" stroke-linecap="round" stroke-linejoin="miter"></path></svg>